<?xml version="1.0" encoding="UTF-8"?>
<svg id="Layer_1" data-name="Layer 1" xmlns="http://www.w3.org/2000/svg" viewBox="0 0 535.15 525.67">
  <defs>
    <style>
      .cls-1 {
        fill: #9d734b;
      }

      .cls-2 {
        fill: #d8aa73;
      }

      .cls-3 {
        fill: #f7f1de;
      }

      .cls-4 {
        fill: #9d754c;
      }

      .cls-5 {
        fill: #d8a973;
      }

      .cls-6 {
        fill: #f7cb92;
      }

      .cls-7 {
        fill: #96704e;
      }

      .cls-8 {
        fill: #9d724b;
      }

      .cls-9 {
        fill: #bd8b54;
      }

      .cls-10 {
        fill: #c4955e;
      }

      .cls-11 {
        fill: #ddad74;
      }

      .cls-12 {
        fill: #9e754e;
      }

      .cls-13 {
        fill: #d9aa73;
      }

      .cls-14 {
        fill: #99734d;
      }

      .cls-15 {
        fill: #9c754d;
      }

      .cls-16 {
        fill: #a0764f;
      }

      .cls-17 {
        fill: #d8a873;
      }

      .cls-18 {
        fill: #9d7652;
      }

      .cls-19 {
        fill: #f5ca8e;
      }

      .cls-20 {
        fill: #331914;
      }

      .cls-21 {
        fill: #deaf75;
      }

      .cls-22 {
        fill: #fff;
      }

      .cls-23 {
        fill: #997049;
      }

      .cls-24 {
        fill: #f8cb93;
      }

      .cls-25 {
        fill: #f7cd95;
      }

      .cls-26 {
        fill: #9a7450;
      }

      .cls-27 {
        fill: #9e744c;
      }

      .cls-28 {
        fill: #a2784e;
      }

      .cls-29 {
        fill: #d9d8d7;
      }

      .cls-30 {
        fill: #9b724b;
      }

      .cls-31 {
        fill: #d0c3b0;
      }

      .cls-32 {
        fill: #9c734c;
      }

      .cls-33 {
        fill: #d7a874;
      }

      .cls-34 {
        fill: #f9ddb4;
      }

      .cls-35 {
        fill: #9b7651;
      }

      .cls-36 {
        fill: #fbdcad;
      }

      .cls-37 {
        fill: #c2945c;
      }

      .cls-38 {
        fill: #bf8f53;
      }

      .cls-39 {
        fill: #96714f;
      }

      .cls-40 {
        fill: #98724d;
      }

      .cls-41 {
        fill: #9e774c;
      }

      .cls-42 {
        fill: #f8cb91;
      }

      .cls-43 {
        fill: #d3d3d3;
      }

      .cls-44 {
        fill: #d8a971;
      }

      .cls-45 {
        fill: #99744e;
      }

      .cls-46 {
        fill: #9c754e;
      }

      .cls-47 {
        fill: #d1c4b1;
      }

      .cls-48 {
        fill: #fbdfb2;
      }

      .cls-49 {
        fill: #daad76;
      }

      .cls-50 {
        fill: #f8d6aa;
      }

      .cls-51 {
        fill: #a17752;
      }

      .cls-52 {
        fill: #9b724c;
      }

      .cls-53 {
        fill: #9f7752;
      }

      .cls-54 {
        fill: #a0774d;
      }

      .cls-55 {
        fill: #9f7853;
      }

      .cls-56 {
        fill: #a27850;
      }

      .cls-57 {
        fill: #d8a872;
      }

      .cls-58 {
        fill: #fbdfb6;
      }

      .cls-59 {
        fill: #aa7f51;
      }

      .cls-60 {
        fill: #99724f;
      }

      .cls-61 {
        fill: #f8ca8e;
      }

      .cls-62 {
        fill: #977250;
      }

      .cls-63 {
        fill: #f7f1dd;
      }

      .cls-64 {
        fill: #a1764d;
      }

      .cls-65 {
        fill: #2f1714;
      }

      .cls-66 {
        fill: #d1c5b0;
      }

      .cls-67 {
        fill: #a0774e;
      }

      .cls-68 {
        fill: #9b734b;
      }

      .cls-69 {
        fill: #deb07a;
      }

      .cls-70 {
        fill: #a0744c;
      }

      .cls-71 {
        fill: #9d744c;
      }

      .cls-72 {
        fill: #f9dbad;
      }

      .cls-73 {
        fill: #9b724d;
      }

      .cls-74 {
        fill: #daac73;
      }

      .cls-75 {
        fill: #9c7551;
      }

      .cls-76 {
        fill: #a0754f;
      }

      .cls-77 {
        fill: #d6a872;
      }

      .cls-78 {
        fill: #f6c78e;
      }

      .cls-79 {
        fill: #ca9b67;
      }

      .cls-80 {
        fill: #c29158;
      }

      .cls-81 {
        fill: #a1784e;
      }

      .cls-82 {
        fill: #f9cd95;
      }

      .cls-83 {
        fill: #9e754c;
      }

      .cls-84 {
        fill: #f8cd96;
      }

      .cls-85 {
        fill: #a0764d;
      }

      .cls-86 {
        fill: #98724e;
      }

      .cls-87 {
        fill: #9b734a;
      }

      .cls-88 {
        fill: #9f7750;
      }

      .cls-89 {
        fill: #d1d2d1;
      }

      .cls-90 {
        fill: #9f764c;
      }

      .cls-91 {
        fill: #a2774e;
      }

      .cls-92 {
        fill: #9d764f;
      }

      .cls-93 {
        fill: #fadfb3;
      }

      .cls-94 {
        fill: #f7ca8e;
      }

      .cls-95 {
        fill: #a17850;
      }

      .cls-96 {
        fill: #f7cc93;
      }

      .cls-97 {
        fill: #fadeb2;
      }

      .cls-98 {
        fill: #9c7550;
      }

      .cls-99 {
        fill: #9e7551;
      }

      .cls-100 {
        fill: #98724f;
      }

      .cls-101 {
        fill: #d1c4af;
      }

      .cls-102 {
        fill: #9b744f;
      }

      .cls-103 {
        fill: #9c744e;
      }

      .cls-104 {
        fill: #9a7250;
      }
    </style>
  </defs>
  <g id="Generative_Object" data-name="Generative Object">
    <path class="cls-22" d="M475.7,497.38l-22.15,21.84c-8.87,8.76-22.88,8.7-31.19-.79l-112.35-109.08-44.92-43.28-152.98,151.2c-7.85,7.77-21.07,7.77-29.04,1.07l-20.96-19.69c-6.3-.06-12.37-1.84-16.89-6.27l-10.09-9.89c-3.67-3.62-4.8-8.79-5.34-13.79l-23.65-22.8c-7.54-7.26-8.56-20-.73-27.8l41.58-41.44,101.76-101.59,19.18-19.46-37.97-37.23L9.51,101.82c-9.86-9.55-10.14-23.9.06-33.56l11.5-10.88c.42-6.22,3.42-11.33,7.6-15.48l7.18-7.15c4.24-4.21,9.58-6.36,15.68-6.24l22.15-21.58c8.19-7.97,21.41-9.86,30.23-1.41l48.68,46.75,74.61,71.45,42.32,40.31,96.59-93.74,61.76-59.86c9.52-9.24,23.28-7.66,32.23,1.53l15.85,16.22c6.61-.17,12.06,2.46,16.61,6.89l6.61,6.5c4.75,4.66,7.06,10.82,6.89,17.35l22.88,22.54c9.32,10.2,7.68,23.96-1.72,33.19l-48.85,47.91-74.02,73.25-32.09,31.84,41.5,41.08,110.26,109.89c8.11,8.08,8.7,20.79,1.27,29.38l-18.53,18.87c.03,10.23-6.81,17.29-14.49,24.18-4.55,4.1-10,6.47-16.58,6.3l.03.03ZM439.85,506.68l30.88-30.71c2.2,3.22,5.79,3.79,8.33,1.3l6.95-6.72c1.41-1.38,2.37-2.88,2.29-4.69-.06-1.47-.79-2.8-2.66-4.44l26.02-25.74c.93-.9,1.1-2.97-.03-4.12l-156.42-155.97c-1.02-1.21-2.97-1.72-4.15-.54l-25.54,25.28-25.48-25.93c2.66-7.8,2.57-15.99-.57-23.5l25.74-25.85,28.84,29.01c.93.96,1.86,1.47,3.02,1.36.82-.08,1.61-.59,2.37-1.36l21.1-20.88,135.57-133.82c1.07-1.07,1.21-1.86,1.07-3.11-.08-.71-.59-1.33-1.38-2.12l-30.91-30.74c2.77-2.29,3.96-5.99,1.44-8.48l-8.16-7.99c-2.03-1.98-5.31-.51-7.37,1.67l-25.85-25.85c-1.86-1.84-4.29.54-5.82,2.03l-76.45,73.93-80.66,78.37c-1.1,1.07-1.61,1.7-1.58,2.83,0,.9.42,1.67,1.21,2.43l24.3,24.01-26.47,25.06c-8.02-2.83-16.1-2.66-23.79.48l-28.22-26.22,26.95-26.67c.71-.71,1.19-1.64,1.16-2.26s-.31-1.53-1.21-2.4l-112.18-107.3-51.16-48.7c-.62-.57-2.18-.57-2.85.11l-31.5,30.62c-1.53-1.47-3.14-2.51-4.89-2.49s-3.45.9-4.83,2.34l-6.1,6.36c-2.06,2.15-1.41,5.14.4,7.4l-20.11,19.61c-1.75,1.7-1.55,4.07.23,5.79l163.46,158.37c1.5.57,2.94.59,3.87-.37l20.74-20.74,26.92,26.47c-2.74,7.54-2.63,15-.14,22.4l-25.74,26.19-29.35-28.82c-1.21-1.21-2.66-1.53-4.18-.14l-93.09,93.37-65.99,65.97c1.61,3.45,3.96,4.94,6.27,7.15l26.39,25.23c-2.49,2.23-2.85,5.11-.88,7.32,2.83,3.14,5.88,6.27,9.32,8.7,2.51,1.78,5.31.45,7.2-2.12l27.77,26.47c1.24,1.19,3.36,1.53,4.72.2l156.42-153.54c1.13-1.13,1.5-1.95,1.44-3.05-.06-.85-.54-1.64-1.3-2.4l-25.54-25.26,25.93-25.17c8.14,3.16,16.64,3.45,24.78.23l26.08,24.92-29.58,29.75c-.79.79-.76,2.51.03,3.39l38.76,37.38,120.86,116.79c.99.93,2.43.79,3.39-.17l-.08.08ZM274.59,211.49l5.93-5.28-13.96-13.59-13,13.25,6.36,5.96c4.66-.59,9.41-.45,14.66-.34ZM325.66,274.8l11.95-11.84-12.43-12.29-5.59,6.16c.62,4.21.54,7.88.17,12.09,2.03,1.95,3.42,4.32,5.9,5.85v.03ZM216.47,269.26c-.59-4.49-.28-8.25-.08-12.06l-6.38-6.27c-3.98,4.18-7.49,8.22-12.03,11.53l12.91,12.63,5.57-5.82h.03ZM280.63,319.8c-1.78-2.06-3.5-3.47-5.62-5-4.66.79-9.04.82-13.7.08-2.06,1.67-4.12,2.91-5.4,5l12.57,12.15,12.12-12.23h.03Z"/>
    <path class="cls-65" d="M439.85,506.68c-.96.93-2.4,1.1-3.39.17l-120.86-116.79-38.76-37.38c-.82-.85-.82-2.6-.03-3.39l29.58-29.75-26.08-24.92c-8.14,3.22-16.64,2.94-24.78-.23l-25.93,25.17,25.54,25.26c.76.76,1.27,1.55,1.3,2.4.06,1.1-.31,1.95-1.44,3.05l-156.42,153.54c-1.36,1.33-3.47.99-4.72-.2l-27.77-26.47c-1.89,2.6-4.69,3.9-7.2,2.12-3.45-2.43-6.5-5.54-9.32-8.7-1.98-2.2-1.61-5.09.88-7.32l-26.39-25.23c-2.32-2.2-4.66-3.7-6.27-7.15l65.99-65.97,93.09-93.37c1.5-1.38,2.94-1.05,4.18.14l29.35,28.82,25.74-26.19c-2.49-7.4-2.6-14.86.14-22.4l-26.92-26.47-20.74,20.74c-.96.96-2.4.93-3.87.37L21.35,88.12c-1.78-1.72-1.98-4.1-.23-5.79l20.11-19.61c-1.81-2.26-2.46-5.25-.4-7.4l6.1-6.36c1.38-1.44,3.02-2.32,4.83-2.34s3.36,1.02,4.89,2.49l31.5-30.62c.71-.68,2.26-.68,2.85-.11l51.16,48.7,112.15,107.32c.9.88,1.16,1.75,1.21,2.4s-.45,1.58-1.16,2.26l-26.95,26.67,28.22,26.22c7.66-3.16,15.76-3.33,23.79-.48l26.47-25.06-24.3-24.01c-.76-.76-1.19-1.53-1.21-2.43,0-1.13.48-1.78,1.58-2.83l80.66-78.37,76.45-73.93c1.55-1.5,3.98-3.87,5.82-2.03l25.85,25.85c2.06-2.18,5.34-3.64,7.37-1.67l8.16,7.99c2.51,2.49,1.36,6.19-1.44,8.48l30.91,30.74c.79.79,1.3,1.41,1.38,2.12.14,1.24,0,2.03-1.07,3.11l-135.57,133.82-21.1,20.88c-.76.76-1.58,1.27-2.37,1.36-1.19.11-2.09-.4-3.02-1.36l-28.84-29.01-25.74,25.85c3.14,7.51,3.19,15.71.57,23.5l25.48,25.93,25.54-25.28c1.21-1.19,3.14-.68,4.15.54l156.42,155.97c1.16,1.13.96,3.19.03,4.12l-26.02,25.74c1.89,1.64,2.6,2.97,2.66,4.44.08,1.81-.88,3.31-2.29,4.69l-6.95,6.72c-2.54,2.46-6.13,1.89-8.33-1.3l-30.88,30.71.06-.06ZM224.75,202.64l26.3-26.16-65.63-62.72-15.34-14.69-13.7-13.16-17.52-16.78-11.84-11.3-12.77-12.2-23.31-22.23c-.54-.51-1.07-1.13-1.67-1.07-.45.03-1.24,1.24-1.13,2.03l33.53,31.92,17.6,16.81,51.78,48.62,38.17,36.13c6.55,6.19,12.85,11.92,19.1,18.65l-25.11,25.23c0,.42,1.13,1.33,1.5.96l.03-.03ZM61.75,53.62l6.64-6.44,18.76-18.53c.03-.85-1.81-2.37-2.37-1.81l-10.82,10.4-14.49,14.04s2.29,2.34,2.29,2.34ZM289.98,182.67c.2.93,1.13,1.41,1.75,2.03l18.14,18.11,134.76-128.79,22.15-21.36c-.59-.79-1.38-2.03-2.23-2.37l-17.74-18.25-4.01-3.7-155.89,151.34c.82,1.27,1.81,2.43,3.05,2.99h.03ZM96.95,55.74l9.32-9.12-16.36-15.59c-2.77,3.31-5.79,6.19-9.41,9.38l16.44,15.34ZM91.41,60.43c1.05.03,2.66-1.55,2.4-2.43l-15.79-15.14-2.57,2.68,15.96,14.89ZM81.27,71.28l8.02-7.88-16.58-15.23-8.08,8.02,16.61,15.09h.03ZM85.62,75.29l24.78-24.18c-.4-.93-.73-1.41-1.3-1.95l-5.57,5.23-19.52,19.32c.62.85,1.1,1.33,1.61,1.58ZM49.71,53.9l-2.63,2.6c-.37.34-1.16.68-1.55,1.38-.25.45.23,1.3.88,1.92l26.33,25.51,59.1,56.98,80.26,78.23,26.5,26.02,2.23-3.02,1.24-1.89,3.7-3.7,2.29-1.86,2.49-1.81-72.35-66.53-49.78-45.65L51.77,51.64l-2.09,2.26h.03ZM427.48,97.58l-26.58,25.51-101.9,97.18-13.98,13.36,2.43,1.58c.28.4.76.57,1.19.96l4.6,4.01,1.55,2.06,2.54,3.56,25.2-25.74,129.47-130.94,28.73-29.15c.51-.68,1.81-1.61,1.27-2.12l-1.44-1.36c-.34-.31-.79-.99-1.16-1.33l-1.24-1.16-2.43-2.6-48.25,46.16h0ZM117.37,74.67l9.07-8.9-13-12.32-9.24,8.87s13.16,12.35,13.16,12.35ZM114.43,77.3c-4.01-3.96-8.16-8.31-12.63-11.87-.85-.28-2.43,1.27-2.4,2.46l12.94,11.7c.88-.71,1.44-1.19,2.09-2.29ZM356.82,251.09l20.59-20.34,37.46-36.81,50.57-49.92,35.91-35.26,7.4-7.51c1.5-1.53,3.36-2.66,4.49-4.72l-29.35-29.04c-.45-.45-1.44-1.41-1.95-1.24-.57.2-1.19,1.07-1.53,1.5s.4,1.33.85,1.78l25.91,25.88c1.02,1.02,1.64,2.34.48,3.5l-14.8,14.58-87.35,86.7-48.65,48.25-27.35-27.21c-.59-.59-1.33.17-1.38.59-.03.54.23.9.71,1.41l28,27.88v-.03ZM40.61,70.74l-10.51,10.14-4.18,4.29,160.27,155.38c1.84-1.05,2.85-2.37,3.96-3.56l7.43-7.68,8.08-7.68-41.81-40.85-96.05-92.92-22.52-21.72-4.66,4.58v.03ZM107.03,93.65l23.73-23.65-1.53-1.67-6.61,6.38-17.8,17.63c-.45.45,1.24,2.26,2.2,1.3ZM101.64,90.26l7.91-7.88-13.19-12.35-8.02,7.97,13.33,12.23-.03.03ZM473.73,91.76l12.23-12.32-8.36-8.5-12.32,12.46,8.45,8.36ZM136.02,92.01l8.79-8.64-11.16-10.76-9.07,8.7,11.44,10.71ZM479.4,96.68l11.81-11.81-2.46-2.74-12.01,12.12c.62.96,1.27,2.01,2.63,2.46l.03-.03ZM130.51,96.87c.71.68,3.22-1.86,2.54-2.54l-10.93-10.23-2.29,2.57,10.68,10.2ZM487.17,113.43c1.13-.2,1.95-1.36,1.5-1.81l-25.88-25.54c-.68.06-1.47.82-1.5,1.55l25.88,25.79ZM125.17,111.25l24.13-23.93c-.48-.45-.9-.85-1.84-1.3l-24.15,23.9c.48.68,1.27,1.47,1.86,1.33ZM491.47,109.56l12.29-12.35-10.06-9.97-12.2,12.2,9.97,10.11ZM120.45,107.66l7.83-7.77-11.55-10.85-7.88,7.83,11.61,10.76v.03ZM154.58,109.22l8.64-8.64-11.22-10.57-8.76,8.76,11.36,10.48-.03-.03ZM452.11,113.26l14.66-14.66-8.42-8.33-14.55,14.52,8.31,8.45v.03ZM149.46,114.22l2.34-2.37-11.41-10.28-2.26,2.29,11.3,10.37h.03ZM458.05,117.81l13.98-13.76-2.6-2.66-14.15,14.44c.23.85,2.03,2.66,2.77,2.01v-.03ZM143.81,128.06l10.68-10.34,13.19-12.77-1.55-1.72-5.06,4.86-19.27,18.81c.23.99,1.5,1.64,2.01,1.13v.03ZM138.96,124.76l7.74-7.68-11.36-10.59-7.85,7.57s11.47,10.71,11.47,10.71ZM469.94,130.89l14.61-14.55-9.97-9.89-14.61,14.41s9.97,10.03,9.97,10.03ZM183.03,119.42l-12.66-12.03-8.84,8.5,13.08,12.15,8.42-8.59v-.03ZM465.28,134.79c1.21-.45,1.36-.96,1.47-1.19s-.11-.73-.48-1.1l-24.69-24.52c-.73,0-1.53.85-1.53,1.5l25.26,25.31h-.03ZM433.27,132.13l12.12-12.09-8.19-8.28-12.15,12.09,8.22,8.25v.03ZM171.95,130.6l-4.35-4.12-8.56-7.88-2.32,2.26,12.68,12.12s2.54-2.37,2.54-2.37ZM164.49,146.65l23.02-22.83c-.28-.68-.88-1.3-1.58-1.53l-23.34,23c-.59.59-.25.79.25,1.27.37.34.9.79,1.61.08h.03ZM443.89,131.73l6.5-6.58-2.2-2.4-11.95,12.12c.54.88,1.27,1.67,2.4,2.32l5.28-5.42-.03-.03ZM159.3,143.29l7.71-7.66-13.19-11.98-7.6,7.57,13.11,12.06h-.03ZM192.94,145.01l8.53-8.22-11.02-10.34-8.62,8.19,11.1,10.34v.03ZM446.18,153.32c.45.45,1.3-.14,1.5-.54.23-.45.34-.85-.28-1.44l-24.89-24.75c-.85.42-1.16,1.07-1.38,1.67l11.5,11.75,13.53,13.33.03-.03ZM451.07,149.76l12.06-12.09-10.06-9.92-11.98,12.18,9.97,9.8v.03ZM414,151.45l12.46-12.35-8.19-8.25-12.43,12.49,8.16,8.08v.03ZM187.63,149.9c1.55-.4,2.74-2.09,2.26-2.57l-10.42-9.92-2.54,2.6,10.71,9.89ZM198.31,148.26l7.12-7.03c.57-.54-.42-1.86-1.27-2.03l-23.25,23.05c-.37.37.48,1.53,1.36,1.72l16.05-15.74v.03ZM419.46,156.57l12.09-12.29-2.51-2.57-12.2,12.49c.59.85,1.24,1.86,2.6,2.37h.03ZM177.91,160.21l7.29-7.49-11.24-10.23-7.51,7.46,11.47,10.25ZM213.51,163.94l8.11-8.11-13.11-12.46-8.39,8.11,13.36,12.46h.03ZM427.14,173.15c.76-.99,1.53-.99,2.06-1.41l-25.93-25.82-1.7,1.47,6.7,6.92,18.84,18.84h.03ZM431.52,168.97l12.46-12.4-9.92-9.72-12.37,12.37,9.83,9.77v-.03ZM394.6,170.83l12.52-12.4-8.08-8.14-12.46,12.46,8.02,8.08h0ZM208.17,168.55c.62.34,2.46-1.33,2.54-2.23l-12.91-12.06c-1.33,1.02-2.01,1.64-2.68,2.74l13.08,11.55h-.03ZM203.25,182.36l22.37-22.26c-.2-.71-.93-1.33-1.55-1.55l-22.85,22.71c.2.88,1.53,1.58,2.01,1.1h.03ZM198.37,178.97l7.26-7.29-13.22-12.35-7.35,7.46,13.31,12.18ZM400.19,175.78l11.64-11.87c.08-1.1-1.5-2.49-2.29-2.6l-12.03,12.2c.45.76,1.36,1.98,2.68,2.26ZM235.29,184.45l7.99-8.05-14.61-13.96-8.16,8.16s14.78,13.84,14.78,13.84ZM407.7,192.05c.68.25,1.61-.68,1.67-1.38l-25.4-25.43c-.73.62-1.1,1.07-1.44,1.7l25.17,25.09v.03ZM412.03,188.32l12.49-12.49-9.69-9.66-12.43,12.32,9.66,9.8-.03.03ZM378.44,187.16l9.32-9.41-7.94-8.05-9.46,9.63,8.08,7.83ZM230.32,189.42c.96-.76,1.7-1.33,2.49-2.51l-14.69-13.81-2.68,2.68,14.89,13.65ZM220.37,199.03l7.26-6.98-14.92-13.79-7.23,7.29s14.89,13.48,14.89,13.48ZM383.92,192.13l8.59-8.93c.03-1.13-1.64-2.54-2.37-2.66l-9.01,9.38c.93.93,1.38,1.75,2.8,2.2ZM391.35,208.75c.79-.45,1.24-.96,1.53-1.55l-25.03-25.2c-.62.34-1.21.96-1.53,1.72l25.06,25.03h-.03ZM395.44,204.73l9.8-9.63-9.8-9.69-9.38,9.52,9.38,9.77v.03ZM359.48,206.12l11.72-11.89-7.71-8.11-12.2,12.2,8.16,7.83.03-.03ZM364.96,210.81l11.05-11.47c-.23-.73-1.78-2.49-2.74-2.09l-10.88,11.24c-.59.65,1.72,3.16,2.57,2.29v.03ZM371.77,227.19c.82.82,1.7-.17,1.72-.59.03-.57-.08-.79-.65-1.33l-23.76-23.98c-.51-.51-2.06.96-1.38,1.78l24.07,24.13ZM376.6,223.46l12.32-12.03-9.86-9.52-12.03,12.06s9.58,9.49,9.58,9.49ZM339.65,225.89l12.71-12.83-7.63-7.91-12.85,12.88,7.8,7.85h-.03ZM344.51,231.09l5.79-5.65,6.84-7.09c-.96-1.16-1.67-1.95-2.54-2.49l-8.62,9.07c-1.3,1.36-2.99,2.18-4.07,3.79l2.63,2.37h-.03ZM356.91,243.35l12.91-12.88-9.69-9.69-12.91,13,9.69,9.55v.03ZM251.84,239.91l-2.57,1.89c-9.72,7.2-12.35,22.77-6.72,34.52l2.18,3.14.73,1.19c1.84,3.02,4.72,5.2,7.71,6.98,7.83,4.58,17.4,5.54,26.19,1.89,14.83-6.16,21.05-22.8,15.14-37.12l-2.99-5.62-2.54-3.05c-1.55-1.86-3.45-3.53-5.76-4.77l-2.29-1.24c-3.36-1.81-7.12-2.85-10.85-2.91h-2.01c-5.73-.14-11.5,1.64-16.22,5.11ZM53.02,460.68l2.49-2.71-20.57-19.66c-2.8-2.68-5.96-5-7.77-8.53l97.04-97.38,4.1-4.27,18.11-18.08,29.52-29.75c.82-.82,2.29-2.26,3.5-2.2l27.01,26.22,1.02-1.05-25.76-25.37-2.88-2.49-6.61,6.27-9.61,9.66-9.01,9.01-3.81,3.79-10.62,10.62-26.1,26.16-5.48,5.4-77.21,77.29-7.8,7.68,8.31,7.99,19.3,18.76c.96.93,2.23,1.55,2.85,2.6v.03ZM151.72,368.22l-8.53,8.76-89.16,90.23c.11,1.5,1.95,2.2,2.57,2.8l1.67,1.64,2.91,2.91,53.53-51.39,82.41-79.67,53.37-51.36-3.96-2.83-1.24-1.27-3.36-3.53-.99-1.36-2.4-3.79-36.56,37.55-50.23,51.27-.03.03ZM295.97,282.56l-1.84,2.32-3.05,3.31-1.92,1.55-3.56,2.54,19.69,18.76,29.3,27.91,52.18,49.78,88.54,84.33c1.19,0,2.03-1.41,2.63-1.86.76-.57,1.7-1.55,2.29-2.37.54-.73.93-1.3,2.49-2.49l-60.68-60.94-.17-.57-16.92-16.89-34.47-34.8-59.21-59.86-13.36-13.33c-1.1.51-1.33,1.86-1.92,2.66v-.03ZM349.25,284.23l-13.76,13.76-6.07,6.07,46.75,47.21,105.37,106.42,6.61-6.3,14.07-13.79,3.84-4.01-15.31-15.45-137.78-137.44c-1.67.73-2.51,2.29-3.73,3.47v.06ZM175.62,305.28l12.91-13.22-9.69-9.29-12.85,12.88,9.63,9.61v.03ZM181.27,310.02l12.46-12.8-2.43-2.54-12.68,12.8c.82,1.16,1.61,2.15,2.66,2.54ZM187.21,321.86l-23.36-23.17c-.45-.45-1.78.65-1.7,1.27l24.35,24.21c.57.57,1.67-.31,1.58-.76s-.17-.85-.88-1.53v-.03ZM191.25,320.31l12.63-13-7.57-7.4-12.77,13.19,7.71,7.23v-.03ZM156.89,324.06l12.09-12.15-9.77-9.38-12.15,12.23,9.83,9.29ZM162.23,328.95l11.55-11.72c-.85-1.05-1.38-1.86-2.4-2.57l-11.84,11.95c.85.93,1.41,2.01,2.66,2.34h.03ZM167.94,343.73c1.05-.71,1.33-1.21,1.53-1.7l-24.44-24.21c-.42-.42-1.38.11-1.53.42-.17.34-.34.88.2,1.41,0,0,24.24,24.07,24.24,24.07ZM172.52,339.63l11.87-12.37-7.6-7.46-12.29,12.15,8.02,7.66v.03ZM140.4,340.59l9.35-9.61-9.44-9.35-9.55,9.49,9.63,9.46ZM438.38,497.69c-.54.54-1.3.76-1.84.65s-.93-.54-1.64-1.19l-77.49-74.69-50.94-48.93-21.33-20.51c-.48-.45-1.16-1.55-.99-2.03s.62-1.41,1.13-1.95l25.11-25.37c.28-.28-.48-1.13-.9-.99s-.79.14-1.3.68l-27.49,27.71,41.73,40.2,79.24,76.73,30.54,29.44,5.88,5.73,29.66-29.72c-.17-.68-1.86-2.51-2.6-2.01l-26.78,26.27v-.03ZM225.8,323.27l-111.22,107.27-44.47,42.71,6.7,6.44,14.44,13.9,5.37,4.69,153.54-150.66-4.38-4.55-19.97-19.83v.03ZM319.53,346.67l7.63-7.26-13.76-13.02-7.51,7.43s13.65,12.85,13.65,12.85ZM151.84,360.17c1.41-.57,1.38-1.78.93-2.2l-24.66-24.01c-.65.34-1.41,1.16-1.24,1.44,0,0,24.97,24.78,24.97,24.78ZM145.68,345.51l8.98-9.21c-.76-1.05-1.47-1.78-2.43-2.43l-8.93,9.35c.54,1.07,1.41,1.98,2.37,2.29ZM314.31,351.61c.88-.73,1.44-1.3,2.2-2.37l-13.31-13-2.4,2.6,13.5,12.77ZM121.3,360l12.32-12.52-9.72-9.46-12.37,12.43,9.8,9.55h-.03ZM156.16,356.16l9.35-9.66-7.66-7.66-9.52,9.58,7.83,7.77v-.03ZM301.99,364.1l9.66-9.63-13.5-12.91-9.61,9.63,13.45,12.91ZM307.67,367.03l23.65-23.59c-.76-.82-1.19-1.19-1.81-1.41l-24.52,24.52c.34.82,1.05,1.38,1.5,1.36.31,0,.76-.48,1.16-.88h.03ZM338.66,365.31l7.83-7.74-12.29-11.58-7.71,7.6s12.18,11.72,12.18,11.72ZM126.75,364.77l12.12-12.01-2.63-2.49-12.06,12.46c.57,1.27,2.12,2.51,2.57,2.03ZM132.88,379.86c.68-.76,1.1-1.44,1.24-1.86l-24.95-24.92c-.82.71-1.16,1.19-1.38,1.78l25.11,25.03-.03-.03ZM137.06,375.74l12.49-12.8-8.11-7.71-12.18,12.43,7.8,8.05v.03ZM333.29,370.17l2.29-2.49-11.58-11.24c-.62-.59-2.43,1.38-2.6,2.18l11.89,11.55h0ZM102.43,379.21l12.01-12.35-9.49-9.63-12.4,12.37,9.86,9.61h.03ZM326.23,385.79l24.3-23.96c-.37-.82-.99-1.38-1.58-1.61l-17.12,16.58-7.4,7.77c-.54.57-.11,1.07.4,1.38.23.11.79.42,1.38-.17h.03ZM321.06,382.37l9.63-9.46-12.2-11.67-9.44,9.49,12.03,11.64h-.03ZM355.72,381.47l7.83-7.4-10.2-9.63-7.66,7.49,10.03,9.58v-.03ZM107.6,384.21l12.03-12.26c-.45-.99-1.64-2.09-2.63-2.12l-11.92,11.92c.82,1.21,1.61,1.89,2.54,2.49l-.03-.03ZM113.39,398.73c.82.85,2.34-.88,1.61-1.61l-25.14-25.14-1.05,1.95,24.61,24.83-.03-.03ZM118.08,394.92l12.29-12.35-8.08-7.74-12.12,12.18s7.91,7.91,7.91,7.91ZM352.81,383.87l-9.77-9.1c-1.19.2-2.18,1.55-2.34,2.54l9.75,9.21c1.16-.88,2.12-1.64,2.4-2.66h-.03ZM83.41,398.31l11.98-12.15-9.66-9.69-12.29,12.06,9.97,9.8v-.03ZM343.07,402.12l24.49-23.76c-.42-1.38-1.55-1.58-2.15-1.02l-10.14,9.77-12.97,12.71c-.57.57-1.13.9-1.02,1.64.08.57,1.02,1.38,1.78.65ZM338.26,398.67l9.49-9.18-9.94-9.8-9.63,9.38,10.09,9.63v-.03ZM374.79,399.72l7.88-7.74-12.12-11.47-7.88,7.74,12.12,11.47ZM88.61,403.36l11.41-11.78c.62-.62-.62-1.67-1.07-2.01-.68-.51-1.61-.11-2.34.62l-10.54,10.65c1.19,1.38,1.78,2.15,2.54,2.49v.03ZM369.34,404.69c1.5-.68,2.01-1.36,2.6-2.29l-11.95-11.33c-1.16.82-1.84,1.5-2.49,2.54l11.87,11.1-.03-.03ZM94.8,417.94c.65-.2,1.21-.79,1.58-1.41l-24.66-24.32c-.34-.34-.88-.57-1.13-.45-.23.11-.57.25-1.13,1.02l25.34,25.14v.03ZM99.09,414.04l12.26-12.2-8.08-7.88-12.03,12.15,7.88,7.94h-.03ZM362.53,420.06l15.48-15.06,8.73-8.48-1.84-1.75c-.82,1.75-2.12,2.15-3.25,3.25l-21.56,21.41c-.25.28.48,1.1.82,1.21.48.14,1.07-.11,1.58-.59h.03ZM63.16,418.65l13.33-13.48-9.89-9.83-13.48,13.48,10,9.83h.03ZM357.28,417.01l9.52-9.29-11.98-11.67-9.52,9.38,11.98,11.61v-.03ZM393.15,417.29l7.91-7.63-11.44-10.93-7.8,7.8,11.36,10.76h-.03ZM68.5,423.79l13.11-13.16c-.73-1.21-1.55-1.92-2.43-2.63l-12.57,12.85c-.57.57.82,2.51,1.92,2.94h-.03ZM388.01,422.15c1.33-.88,1.64-1.41,2.2-2.32l-11.05-10.74-2.46,2.43,11.3,10.62h0ZM74.74,438.56c.9-.45,1.33-.96,1.61-1.61l-25.79-25.62-1.19,1.95,25.37,25.28h0ZM379.82,438.34l4.21-3.64,20.71-20.51c.57-.54-.34-1.61-.88-1.58s-.79.11-1.33.65l-9.86,9.58-13.53,13.16c-.54.51-.73,1.21-.54,1.67.14.31.82,1.05,1.24.68h-.03ZM79.21,434.36l13.14-13.25-7.99-8.05-13.25,13.25,8.11,8.02v.03ZM375.53,434.64l9.69-9.72-11.33-10.65-9.8,9.55,11.44,10.79v.03ZM42.25,440.03l14.13-14.46-9.89-9.89-14.52,14.49,10.28,9.83v.03ZM411.52,435l8.05-7.68-11.41-11.07-8.14,7.74,11.53,11.02h-.03ZM408.75,437.15l-10.99-10.17c-.59-.54-2.8,1.61-2.34,2.29l10.88,10.57c.96-.68,1.86-1.24,2.49-2.71l-.03.03ZM47.76,444.92l13.62-13.9c.06-1.02-1.1-2.12-2.15-2.88l-13.98,14.55c.45.85,1.27,2.01,2.51,2.23h0ZM398.35,456.19l9.89-9.75,15.17-14.75c.08-.68-.96-1.72-1.55-1.61l-10.76,10.48-13.59,13.28c-.45.45-.57.99-.73,1.3s1.02,1.58,1.55,1.07l.03-.03ZM393.86,452.38l9.75-9.66-11.5-10.85-9.77,9.49,11.53,11.02h0ZM58.27,455.54l14.21-14.27-8.05-7.85-14.24,14.41,8.11,7.71h-.03ZM438.36,445.4l-11.78-11.44-7.99,7.71,11.92,11.67,7.85-7.94ZM425.05,457.94c1.16,0,2.23-1.24,2.77-2.18l-12.03-11.41c-.93.85-1.67,1.41-2.34,2.51l11.61,11.05v.03ZM417.31,474.64l19.75-19.35,5.76-5.73c-.76-.37-1.21-.71-1.92-1.47l-4.49,4.69-15.93,15.2-5.03,5.37c.37.48.99,1.3,1.84,1.3h.03ZM412.59,470.6l9.97-9.83-11.84-11.41-9.86,9.77,11.72,11.47h0ZM454.66,476.42l8.02-7.85-17.2-16.47-7.94,7.77,17.15,16.55h-.03ZM449.46,480.94c.59.57,2.83-1.53,2.4-2.26l-16.7-16.16-2.6,2.46,12.01,11.44,4.89,4.52ZM436.97,494.16l9.94-9.94-17.29-16.72-10.03,9.94,17.37,16.7v.03Z"/>
    <path class="cls-29" d="M280.63,319.8l-12.12,12.23-12.57-12.15c1.24-2.09,3.31-3.33,5.4-5,4.66.73,9.04.71,13.7-.08,2.12,1.53,3.84,2.94,5.62,5h-.03ZM276.56,321.35c1.1-2.15-2.51-2.99-3.96-2.66-5.57,1.27-10.48-1.7-12.01,2.01,2.68,2.99,5.37,5.93,8.53,8.25,2.66-2.34,5.79-4.44,7.43-7.6Z"/>
    <path class="cls-43" d="M274.59,211.49c-5.23-.11-10-.25-14.66.34l-6.36-5.96,13-13.25,13.96,13.59-5.93,5.28ZM277.3,206.97c-2.49-1.55-5.06-4.01-6.53-6.1l.25-1.3c.03-.2-.71-.9-1.36,0l-2.26-2.09-9.49,9.61c.62,1.64,2.2,3.76,3.79,3.53,4.46-.62,8.36-.42,12.63-.28.99-1.21,2.43-1.61,2.94-3.33l.03-.03Z"/>
    <path class="cls-29" d="M216.47,269.26l-5.57,5.82-12.91-12.63c4.52-3.31,8.02-7.35,12.03-11.53l6.38,6.27c-.23,3.79-.51,7.57.08,12.06h-.03ZM211.22,272.17c1.53-1.16,3.5-2.46,3.45-3.96-.17-3.45.99-6.84-1.1-9.72-.42-.57-1.98-.88-2.54-2.43l-8.25,7.32,8.45,8.81v-.03Z"/>
    <path class="cls-89" d="M325.66,274.8c-2.46-1.53-3.84-3.9-5.9-5.85.34-4.21.42-7.88-.17-12.09l5.59-6.16,12.43,12.29-11.95,11.84v-.03ZM326.43,272.22l4.8-4.63,3.33-3.79-7.99-7.97c-1.5.48-2.71,1.55-3.47,3.25l.06,10.23,3.28,2.94v-.03Z"/>
    <path class="cls-63" d="M446.83,32.01l17.74,18.25c-1.41-.54-2.2-1.61-3.67-3.19l-111.36,106.39-45,42.71-12.35-12.26c-.37.31-.34.57-.42.76-.59-.59-1.55-1.1-1.75-2.03l15.34-14.66,17.77-17.15,18.73-18.08,15-14.41,18.73-18.11,18.45-17.8,20.28-19.66,19.94-19.32,11.44-11.07c.28-.28.79-.23,1.19-.37h-.06Z"/>
    <path class="cls-63" d="M245.8,343.11l-25.11,24.41-33.08,32.52-34.07,33.34-20.28,19.75-26.22,25.51-14.27,13.87c-.34.31-1.36.37-1.53,1.13l-14.44-13.9,76.05-74.5,77.32-75.12c1.3-1.27-2.6-3.84-4.35-6.81l19.97,19.83v-.03Z"/>
    <path class="cls-63" d="M502.23,437.63l-14.07,13.79-40.88-40.82-111.79-112.61,13.76-13.76c.93,1.89,2.85,2.77,4.21,4.18l7.06,7.32,8.79,8.76,13.11,13,7.03,7.4c1.75,1.84,3.98,2.97,5.48,5.17,1.67,2.43,4.1,4.15,6.22,6.27l13.7,13.65c1.24,1.24,1.81,2.83,3.7,3.45l79.98,80.06c1.47,1.47,2.09,3.08,3.73,4.15h-.03Z"/>
    <path class="cls-3" d="M197.58,229.31l-7.43,7.68c.17-1.07-1.05-.85-1.3-1.1l-13.73-13.28-19.32-18.67-19.38-18.76-23.67-23.05-16.92-16.27-23.11-22.46-18.08-17.49-16.84-16.22-7.03-6.78c-.68-.65-.79-1.21-.65-2.03l10.51-10.14c0,.93.28,1.84,1.07,2.57l27.66,26.78c.57.93,1.1,2.63,2.37,2.26l14.15,13.59,71.11,69.16,18.79,18.19,23.67,23.42c-1.5,1.1-1.38,2.12-1.86,2.6h0Z"/>
    <path class="cls-96" d="M304.96,293.02c1.36.23,2.29,1.38,3.36,2.43l20,19.32c2.2,2.12,4.01,4.18,6.24,6.33l5.62,5.4c1.16,1.92,2.97,2.97,4.52,4.46l22.69,22.18,29.97,29.24,22.91,22.12c.59.57.96,1.24,1.75.88l60.68,60.94c-1.55,1.19-1.95,1.75-2.49,2.49-6.98-4.18-12.91-9.63-18.84-15.54-5.93-5.9-10.74-11.22-15.54-17.52l-4.35-4.49c-.28-.28-1.21.48-1.05.88l.65,1.5c5,7.15,10.68,13.22,16.64,19.52s11.5,11.33,18.5,15.82c.76.48,1.55,1.44,1.67,2.2-.59.45-1.44,1.86-2.63,1.86l-88.54-84.33-52.18-49.78c.14-.31.68-.65,1.02-.57,2.77,1.95,5.68,3.59,8.84,4.55,13,3.98,20.06,15.54,27.74,25.51,6.3,8.14,14.46,14.86,23.22,20.28,7.12,4.41,12.97,9.12,17.8,16.07,2.51,3.62,5.2,7.54,9.46,10.06-.73-3.9-3.81-6.36-5.79-9.41-4.69-7.18-10.45-12.77-17.8-17.2-9.72-5.85-18.73-12.66-25.4-21.98-5.11-7.15-10.25-13.67-16.87-19.41-3.64-3.16-7.94-4.83-12.32-6.5-8.5-3.25-21.53-15.79-28.19-23.56l-11.84-13.76-9.32-10.03c-1.47-1.58-3.14-2.88-4.1-4.83l3.05-3.31,23.11,27.26c6.36,7.37,13.48,13.9,22.69,17.68-.96-2.77-3.5-3.47-5.4-4.92-5.93-4.44-11.1-9.12-15.88-14.8l-12.54-14.94c-.62-.73-1.3-1.24-1.13-2.15l.03.03Z"/>
    <path class="cls-24" d="M128.45,122.07c-.9,0-.88.65-.37.79l7.06,6.75,5.09,4.44,4.04,3.84c-.31.88-.45,1.55-.48,2.34-3.5-3.22-7.29-6.33-11.67-8.96l-22.18-13.33c1.33,4.24,5.31,5.37,8.36,7.91,10.96,5.85,20.45,13,29.27,21.75l12.12,12.03c.82-.65,1.13-1.07,1.27-1.61.14-.51-.57-1.1-.88-1.47.42-.34,1.58-.9,1.98-.45l1.24,1.44c2.57,1.7,4.52,3.7,6.75,5.82l13.45,12.68,5.88,5.42,6.41,6.05c-.11.57,0,1.1,0,1.41-5.62-3.08-10.74-2.66-18.93-9.44s-15.54-14.58-22.97-22.49l-14.07-12.91c-.28-.25-1.07.51-1.05.9.03.25-.11.96.25,1.33l15.85,15.93c10.2,10.25,21.67,22.94,35.09,26.89,5.11,1.5,9.07,5.09,13.16,8.56,9.75,8.25,16.7,20.28,23.7,25.62,5.28,4.04,10.31,7.97,15.79,11.61,1.27.85,2.46,1.7,3.08,2.99l-3.7,3.7c.06-1.44-.71-1.33-1.64-1.89-7.66-4.66-14.69-10.11-20.74-16.81l-12.01-16.02c-4.1-5.45-13.53-11.84-13.9-7.68-.06.54,1.27.9,1.72,1.13,13,6.72,18.98,22.71,26.33,28.56l11.16,8.87,7.83,5.73-2.23,3.02-26.5-26.02-80.26-78.23-59.1-56.98-26.33-25.51c-.65-.62-1.13-1.47-.88-1.92.4-.71,1.19-1.02,1.55-1.38,11.5,7.46,21.75,16.36,30.74,26.75l11.61,13.42c.51.59,1.92.2,1.75-.2-2.32-5.73-19.63-24.24-25.57-29.07l-13.76-11.22c-.79-.65-2.18-.85-2.2-2.23l2.09-2.26,76.64,70.43.11-.08Z"/>
    <path class="cls-25" d="M245.26,288.07c-.17.31-.14.85-.4,1.13l-11.87,13.19c-6.27,6.95-21.75,15.03-32.26,28.87-2.8,3.67-5.4,7.74-3.62,12.23l-82.41,79.67-53.53,51.39-2.91-2.91c11.72-15.65,25.62-29.58,42.12-40.82l1.07-1.24c.23-.25-.31-1.44-.71-1.24-15.96,8.25-33.53,27.26-44.18,41.67-.62-.59-2.43-1.33-2.57-2.8l89.16-90.23,8.53-8.76c0,.42.14.68.28.88.28.4,1.21.42,1.67.03l3.73-3.19,29.66-29.47c.82-.82,1.44-1.47,2.54-1.53l-4.12,10.57c-4.44,6.95-10.68,12.09-17.06,17.23-8.02,6.44-14.83,13.79-21.02,22.12,2.43.76,3.67-.99,5.09-2.49,6.07-6.53,12.12-12.63,18.81-18.59l9.29-8.25c10.06-8.93,8.19-16.5,13.16-22.4s9.83-11.27,15.85-15.96c9.29-7.26,17.49-15.09,24.72-24.55l7.49-8.05,3.36,3.53.11-.03ZM107.23,417.6c12.26-3.93,21.33-12.29,28-22.57,4.89-7.54,10.14-14.1,16.89-19.92,1.84-1.58,3.62-3.22,5.06-5.45-3.08-.31-4.41,2.15-6.24,3.62-7.49,5.93-13.22,12.97-18.22,21.1-3.93,6.41-9.58,11.27-15.4,15.82-3.45,2.63-7.18,4.44-10.06,7.4h-.03Z"/>
    <polygon class="cls-47" points="488.16 451.42 481.55 457.72 376.18 351.3 329.42 304.09 335.49 297.99 447.28 410.6 488.16 451.42"/>
    <path class="cls-66" d="M76.8,479.7l-6.7-6.44,44.47-42.71,111.22-107.27c1.75,2.97,5.65,5.54,4.35,6.81l-77.32,75.12-76.05,74.5h.03Z"/>
    <path class="cls-31" d="M464.54,50.26c.82.34,1.61,1.58,2.23,2.37l-22.15,21.36-134.76,128.79-18.14-18.11c.08-.2.06-.45.42-.76l12.35,12.26,45-42.71,111.36-106.39c1.5,1.58,2.26,2.66,3.67,3.19h0Z"/>
    <path class="cls-101" d="M197.58,229.31c.48-.48.37-1.5,1.86-2.6l-23.67-23.42-18.79-18.19-71.11-69.16-14.15-13.59c-1.27.37-1.84-1.33-2.37-2.26l-27.66-26.78c-.76-.73-1.07-1.67-1.07-2.57l4.66-4.58,22.52,21.72,96.08,92.92,41.81,40.85-8.08,7.68-.03-.03Z"/>
    <path class="cls-82" d="M479.4,55.18c.37.34.82,1.02,1.16,1.33l-4.04,5.48-3.64,3.5c-1.38,1.33-2.26,2.8-3.67,4.18l-7.18,7.12c-4.1,4.07-10.68,10.42-16.02,13.39-12.8,7.09-25.23,15.85-33.31,28.36-5.14,7.91-9.29,15.65-16.92,21.41l-9.77,9.44c-.59.57-.28,1.98.31,2.09l8.84-7.8c8.59-6.72,14.58-15.11,19.97-24.38,5.79-9.94,22.8-22.54,33.67-28.19.99-.51,1.67-2.51,3.22-1.95l-129.47,130.94-25.2,25.74-2.54-3.56c5.42-6.92,12.71-11.5,19.24-17.46,11.87-10.82,22.63-22.12,33.7-33.76,6.58-5.45,11.92-11.75,13.9-20.26,3.36-4.94,6.64-9.55,10.99-13.45l19.61-17.26c.48-.42.71-.73.54-1.21-.06-.2-.48-.45-.68-.4s-.59.25-.93.48l-4.46,3.05c-.57-2.37,3.16-5.45,6.41-7.97l9.35-9.15c-.71-.25-1.02-.42-1.16-.68-.11-.23-.11-.62-.4-1.13l26.58-25.51c1.7,1.16,3.02-.59,4.18-1.7l15.96-15.28,12.06-11.64,1.5.79c-.4.62-1.5,1.19-.51,2.77l9.89-8.96,7.46-8.08,1.36-.31h0Z"/>
    <path class="cls-22" d="M91.24,493.6c.17-.79,1.21-.82,1.53-1.13l14.27-13.87,26.22-25.51,20.28-19.75,34.07-33.34,33.08-32.52,25.11-24.41,4.38,4.55-153.54,150.66-5.37-4.69h-.03Z"/>
    <path class="cls-22" d="M190.15,237c-1.13,1.16-2.15,2.51-3.96,3.56L25.92,85.18l4.18-4.29c-.14.82-.03,1.38.65,2.03l7.03,6.78,16.84,16.22,18.08,17.49,23.11,22.46,16.92,16.27,23.67,23.05,19.38,18.76,19.32,18.67,13.73,13.28c.28.25,1.47.03,1.3,1.1Z"/>
    <path class="cls-22" d="M502.23,437.63c-1.64-1.07-2.26-2.68-3.73-4.15l-79.98-80.06c-1.89-.62-2.46-2.23-3.7-3.45l-13.7-13.65c-2.12-2.12-4.55-3.84-6.22-6.27-1.53-2.2-3.76-3.33-5.48-5.17l-7.03-7.4-13.11-13-8.79-8.76-7.06-7.32c-1.36-1.41-3.28-2.29-4.21-4.18,1.19-1.19,2.06-2.74,3.73-3.47l137.78,137.44,15.31,15.45-3.84,4.01.03-.03Z"/>
    <path class="cls-22" d="M446.83,32.01c-.4.14-.9.08-1.19.37l-11.44,11.07-19.94,19.32-20.28,19.66-18.45,17.8-18.73,18.11-15,14.41-18.73,18.08-17.77,17.15-15.34,14.66c-1.24-.57-2.23-1.72-3.05-2.99L442.79,28.31l4.01,3.7h.03Z"/>
    <path class="cls-94" d="M267.67,239.48l.93,11.58c-5,0-9.92,3.05-11.55,7.26-2.2,5.71-.31,11.36,3.93,14.46,4.49,3.31,10.74,3.08,15.37-.25.9,3.33-.23,6.86-.08,10.54l-5.03,1.98-1.44-4.58c-.93,1.61-1.05,3.5-1.33,5.34-5.25.93-9.89.06-14.61-.68-.65-4.04-.11-8.14-1.55-12.15-1.24,3.62-1.02,6.7-1.5,10.34-1.81-1.3-3.36-2.2-5.28-2.68l-.73-1.19c.82-8.45,2.2-18.59-.03-25.82,1.98-1.36,2.83-3.76,5.34-5.45l.76,10.68h.96l.68-13.79c4.72-2.83,9.58-5.62,15.23-5.59h-.06Z"/>
    <path class="cls-92" d="M356.82,251.09l-28-27.88c-.48-.48-.76-.88-.71-1.41.03-.42.79-1.19,1.38-.59l27.35,27.21,48.65-48.25,87.35-86.7,14.8-14.58c1.16-1.16.54-2.49-.48-3.5l-25.91-25.88c-.42-.42-1.16-1.38-.85-1.78s.93-1.3,1.53-1.5c.51-.17,1.5.82,1.95,1.24l29.35,29.04c-1.13,2.06-2.97,3.16-4.49,4.72l-7.4,7.51-35.91,35.26-50.57,49.92-37.46,36.81-20.59,20.34v.03Z"/>
    <path class="cls-30" d="M438.38,497.69l26.78-26.27c.73-.51,2.43,1.33,2.6,2.01l-29.66,29.72-5.88-5.73-30.54-29.44-79.24-76.73-41.73-40.2,27.49-27.71c.51-.51.88-.54,1.3-.68s1.19.71.9.99l-25.11,25.37c-.54.54-.99,1.47-1.13,1.95s.51,1.58.99,2.03l21.33,20.51,50.94,48.93,77.49,74.69c.68.65,1.07,1.1,1.64,1.19s1.3-.14,1.84-.65v.03Z"/>
    <path class="cls-85" d="M53.02,460.68c-.59-1.05-1.86-1.67-2.85-2.6l-19.3-18.76-8.31-7.99,7.8-7.68,77.21-77.29,5.48-5.4,26.1-26.16,10.62-10.62,3.81-3.79,9.01-9.01,9.61-9.66,6.61-6.27,2.88,2.49,25.76,25.37-1.02,1.05-27.01-26.22c-1.24-.06-2.71,1.38-3.5,2.2l-29.52,29.75-18.11,18.08-4.1,4.27-97.04,97.38c1.81,3.53,4.97,5.85,7.77,8.53l20.57,19.66-2.49,2.71v-.03Z"/>
    <path class="cls-42" d="M361.99,165.8l-5.34,11.07c-2.51,5.23-33.31,36.64-40.68,43.03l-15.74,13.67-7.01,6.64-4.6-4.01c1.5-.37,2.29-1.64,3.45-2.74,9.38-8.87,21.81-14.46,33.67-28.08,2.46-2.83,5.28-5.54,4.97-9.89-7.29,10.28-15.96,17.35-25.11,24.38-.45-.85-.17-1.24.4-1.81l13.9-13.53,10.65-10.03,15.96-15.28c4.32-4.12,8.11-8.33,13.02-11.92.71-.51,1.1-1.92,2.43-1.53l.03.03Z"/>
    <path class="cls-86" d="M224.75,202.64c-.37.37-1.5-.57-1.5-.96l25.11-25.23c-6.24-6.75-12.54-12.46-19.1-18.65l-38.17-36.13-51.78-48.62-17.6-16.81-33.53-31.92c-.14-.79.68-2.01,1.13-2.03.57-.06,1.13.57,1.67,1.07l23.31,22.23,12.77,12.2,11.84,11.3,17.52,16.78,13.7,13.16,15.34,14.69,65.63,62.72-26.3,26.16-.03.03Z"/>
    <path class="cls-58" d="M386.68,142.05c-8.67,7.4-17.37,15.09-24.72,23.76-1.33-.42-1.72.99-2.43,1.53-4.92,3.59-8.7,7.8-13.02,11.92l-15.96,15.28-10.65,10.03-13.9,13.53c-.57.57-.88.93-.4,1.81l-13.56,10.42-4.63,4.94-2.43-1.58,13.98-13.36,101.9-97.18c.28.51.28.9.4,1.13.14.28.45.45,1.16.68l-9.35,9.15c-3.25,2.51-6.98,5.62-6.41,7.97l.03-.03Z"/>
    <path class="cls-49" d="M334.59,338.95l-29.3-27.91c1.02-.14,1.55,1.27,3.5,1.41-5.73-7.99-12.66-15.34-19.63-22.71l1.92-1.55c.96,1.95,2.63,3.22,4.1,4.83l9.32,10.03,11.84,13.76c6.7,7.77,19.69,20.31,28.19,23.56,4.38,1.67,8.67,3.36,12.32,6.5,6.61,5.73,11.75,12.26,16.87,19.41,6.64,9.32,15.65,16.13,25.4,21.98,7.35,4.44,13.11,10.03,17.8,17.2,2.01,3.08,5.09,5.51,5.79,9.41-4.29-2.51-6.95-6.41-9.46-10.06-4.83-6.95-10.68-11.67-17.8-16.07-8.79-5.42-16.95-12.12-23.22-20.28-7.68-9.94-14.75-21.53-27.74-25.51-3.16-.96-6.07-2.6-8.84-4.55-.34-.08-.88.25-1.02.57h-.03Z"/>
    <path class="cls-61" d="M288.99,243.72c-.65.2-.73.68-.68,1.38l.88,15,.14,10.11c0,2.09-2.2,4.07-3.53,5.59-.4-2.12.23-3.87-1.13-5.96-1.1,2.63-1.05,5.31-1.27,8.45l-5.28,3.64v-9.29l-1.81-.08c3.28-3.25,4.63-8.19,3.33-12.8s-5.2-7.88-10.06-8.42l.82-11.87c3.62-.59,7.09.57,10.51,1.41.2,4.24,0,8.48,1.33,12.66,1.33-5.25,1.5-10.03.96-14.61,2.32,1.24,4.21,2.91,5.76,4.77h.03Z"/>
    <path class="cls-36" d="M248.09,236.06c-3.33-3.02-6.89-5.73-10.54-8.02.65-1.47-.93-1.89-1.61-2.54l-6.86-6.36-10.09-9.29-9.63-9.58c-4.29-4.27-8.33-8.56-13.45-11.36,0-.31-.14-.85,0-1.41l-6.41-6.05-5.88-5.42-13.45-12.68c-2.23-2.12-4.21-4.1-6.75-5.82l-1.24-1.44c-.4-.45-1.55.08-1.98.45-2.51-3.87-5.96-6.84-9.46-10.03l-6.86-6.3c0-.79.14-1.47.48-2.34l-4.04-3.84-5.09-4.44-7.06-6.75c-.51-.14-.54-.76.37-.79l49.78,45.65,72.35,66.53-2.49,1.81-.08.03Z"/>
    <path class="cls-79" d="M291.54,246.8l-.31,20.51c2.63-4.75,2.8-9.75,3.31-14.89,5.9,14.32-.34,30.93-15.14,37.12-8.81,3.67-18.36,2.68-26.19-1.89.37-.79.73-1.61.59-2.46,4.72.73,9.35,1.61,14.61.68.28-1.84.4-3.73,1.33-5.34l1.44,4.58,5.03-1.98c-.11-3.67.99-7.2.08-10.54l1.75.08v9.29l5.34-3.64c.23-3.14.14-5.82,1.27-8.45,1.33,2.09.73,3.84,1.13,5.96,1.33-1.53,3.56-3.5,3.53-5.59l-.14-10.11-.88-15c-.03-.71.03-1.19.68-1.38l2.54,3.05h.03Z"/>
    <path class="cls-93" d="M422.05,405.4c-.79.37-1.16-.31-1.75-.88l-22.91-22.12-29.97-29.24-22.69-22.18c-1.55-1.53-3.36-2.54-4.52-4.46l-5.62-5.4c-2.23-2.15-4.04-4.21-6.24-6.33l-20-19.32c-1.07-1.05-2.01-2.2-3.36-2.43l-4.21-4.35c-1.86-1.95-3.67-3.76-4.8-6.1.62-.76.85-2.15,1.92-2.66l13.36,13.33,59.21,59.86,34.47,34.8,16.92,16.89.17.57h.03Z"/>
    <path class="cls-97" d="M240.88,283.19c-8.31,6.55-13.08,15.26-20.79,21.92l-16.02,13.9c-5.57,4.83-10.65,10-14.44,15.91-1.13.06-1.72.71-2.54,1.53l-29.66,29.47-3.73,3.19c-.48.4-1.38.37-1.67-.03-.14-.2-.25-.45-.28-.88l50.23-51.27,36.56-37.55,2.4,3.79-.06.03Z"/>
    <path class="cls-21" d="M195.88,188.94c5.09,2.77,9.12,7.09,13.45,11.36l9.63,9.58c-.42.14-.73.42-.73.68,0,.23.25.62.51.96,5.34,6.75,11.78,12.15,18.79,16.53,3.67,2.29,7.2,5,10.54,8.02l-2.29,1.86c-.62-1.3-1.81-2.15-3.08-2.99-5.51-3.64-10.51-7.57-15.79-11.61-7.01-5.34-13.96-17.37-23.7-25.62-4.1-3.47-8.05-7.03-13.16-8.56-13.42-3.93-24.89-16.64-35.09-26.89l-15.85-15.93c-.37-.37-.2-1.07-.25-1.33-.06-.37.76-1.16,1.05-.9l14.07,12.91c7.46,7.91,14.61,15.57,22.97,22.49,8.36,6.92,13.31,6.36,18.93,9.44l.03.03Z"/>
    <polygon class="cls-22" points="436.97 494.16 419.6 477.44 429.63 467.49 446.92 484.22 436.97 494.16"/>
    <path class="cls-13" d="M241.87,284.54l-7.49,8.05c-7.23,9.46-15.42,17.26-24.72,24.55-6.02,4.72-10.96,10.2-15.85,15.96-4.89,5.76-3.14,13.5-13.16,22.4l-9.29,8.25c-6.7,5.93-12.77,12.06-18.81,18.59-1.41,1.5-2.66,3.25-5.09,2.49,6.19-8.33,13-15.65,21.02-22.12,6.38-5.14,12.63-10.28,17.06-17.23l4.12-10.57c3.79-5.9,8.87-11.1,14.44-15.91l16.02-13.9c7.71-6.7,12.49-15.4,20.79-21.92l.99,1.36h-.03Z"/>
    <path class="cls-2" d="M294.79,242.28l-1.55-2.06,7.01-6.64,15.74-13.67c7.37-6.38,38.14-37.8,40.68-43.03l5.34-11.07c7.35-8.67,16.05-16.36,24.72-23.76l4.46-3.05c.34-.23.73-.42.93-.48s.62.2.68.4c.17.48-.06.79-.54,1.21l-19.61,17.26c-4.35,3.9-7.63,8.5-10.99,13.45-1.98,8.53-7.35,14.8-13.9,20.26-11.1,11.67-21.84,22.94-33.7,33.76-6.53,5.96-13.81,10.54-19.24,17.46l-.03-.03Z"/>
    <path class="cls-57" d="M452,89.16c-1.55-.57-2.23,1.47-3.22,1.95-10.88,5.62-27.88,18.25-33.67,28.19-5.4,9.27-11.38,17.68-19.97,24.38l-8.84,7.8c-.59-.11-.9-1.53-.31-2.09l9.77-9.44c7.63-5.76,11.81-13.5,16.92-21.41,8.11-12.52,20.51-21.27,33.31-28.36,5.34-2.97,11.92-9.32,16.02-13.39l7.18-7.12c1.41-1.38,2.29-2.85,3.67-4.18l3.64-3.5,4.04-5.48,1.44,1.36c.54.51-.76,1.47-1.27,2.12l-28.73,29.15.03.03Z"/>
    <path class="cls-22" d="M96.95,55.74l-16.44-15.34c3.62-3.19,6.64-6.07,9.41-9.38l16.36,15.59-9.32,9.12Z"/>
    <polygon class="cls-22" points="469.94 130.89 459.97 120.86 474.54 106.45 484.55 116.34 469.94 130.89"/>
    <polygon class="cls-22" points="42.25 440.03 31.94 430.17 46.46 415.68 56.35 425.57 42.25 440.03"/>
    <polygon class="cls-22" points="63.16 418.65 53.16 408.82 66.61 395.34 76.52 405.17 63.16 418.65"/>
    <polygon class="cls-22" points="454.66 476.42 437.51 459.89 445.47 452.12 462.68 468.57 454.66 476.42"/>
    <path class="cls-6" d="M197.1,343.53c.42-3.53,1.78-6.61,4.21-9.15l11.27-11.84,18.81-15.48c4.66-3.84,7.99-8.64,11.95-13.05,1.3-1.44,2.74-2.85,3.19-4.66l3.96,2.83-53.37,51.36h-.03Z"/>
    <polygon class="cls-22" points="81.27 71.28 64.66 56.19 72.71 48.17 89.29 63.4 81.27 71.28"/>
    <polygon class="cls-22" points="356.91 243.35 347.22 233.78 360.13 220.78 369.82 230.47 356.91 243.35"/>
    <polygon class="cls-22" points="301.99 364.1 288.54 351.19 298.15 341.55 311.65 354.46 301.99 364.1"/>
    <polygon class="cls-22" points="452.11 113.26 443.84 104.81 458.39 90.29 466.78 98.62 452.11 113.26"/>
    <polygon class="cls-22" points="491.47 109.56 481.49 99.44 493.73 87.27 503.78 97.21 491.47 109.56"/>
    <polygon class="cls-22" points="175.62 305.28 165.99 295.67 178.87 282.76 188.54 292.06 175.62 305.28"/>
    <polygon class="cls-22" points="431.52 168.97 421.69 159.22 434.09 146.85 443.98 156.57 431.52 168.97"/>
    <polygon class="cls-22" points="121.3 360 111.5 350.45 123.87 338.02 133.62 347.48 121.3 360"/>
    <polygon class="cls-22" points="412.03 188.32 402.36 178.52 414.79 166.17 424.51 175.86 412.03 188.32"/>
    <polygon class="cls-22" points="451.07 149.76 441.1 139.93 453.07 127.75 463.13 137.67 451.07 149.76"/>
    <polygon class="cls-22" points="83.41 398.31 73.44 388.5 85.73 376.44 95.39 386.13 83.41 398.31"/>
    <polygon class="cls-22" points="102.43 379.21 92.57 369.6 104.94 357.23 114.43 366.86 102.43 379.21"/>
    <polygon class="cls-22" points="376.6 223.46 367.02 213.97 379.06 201.91 388.92 211.43 376.6 223.46"/>
    <polygon class="cls-22" points="156.89 324.06 147.03 314.77 159.21 302.54 168.99 311.92 156.89 324.06"/>
    <polygon class="cls-22" points="235.29 184.45 220.51 170.58 228.68 162.41 243.28 176.37 235.29 184.45"/>
    <polygon class="cls-22" points="117.37 74.67 104.21 62.32 113.44 53.45 126.44 65.77 117.37 74.67"/>
    <polygon class="cls-22" points="321.06 382.37 309.02 370.73 318.46 361.24 330.66 372.91 321.06 382.37"/>
    <polygon class="cls-22" points="412.59 470.6 400.87 459.13 410.75 449.36 422.56 460.77 412.59 470.6"/>
    <polygon class="cls-22" points="58.27 455.54 50.16 447.83 64.4 433.42 72.45 441.28 58.27 455.54"/>
    <polygon class="cls-22" points="357.28 417.01 345.3 405.4 354.82 396.02 366.8 407.69 357.28 417.01"/>
    <polygon class="cls-22" points="393.86 452.38 382.36 441.33 392.11 431.84 403.61 442.69 393.86 452.38"/>
    <polygon class="cls-22" points="183.03 119.42 174.64 128.01 161.56 115.86 170.4 107.38 183.03 119.42"/>
    <polygon class="cls-22" points="375.53 434.64 364.08 423.82 373.89 414.27 385.22 424.92 375.53 434.64"/>
    <polygon class="cls-22" points="79.21 434.36 71.1 426.33 84.38 413.05 92.34 421.11 79.21 434.36"/>
    <polygon class="cls-22" points="473.73 91.76 465.28 83.4 477.6 70.94 485.96 79.44 473.73 91.76"/>
    <polygon class="cls-22" points="213.51 163.94 200.15 151.48 208.54 143.37 221.62 155.83 213.51 163.94"/>
    <polygon class="cls-22" points="220.37 199.03 205.51 185.58 212.72 178.26 227.66 192.05 220.37 199.03"/>
    <polygon class="cls-22" points="101.64 90.26 88.3 78.03 96.35 70.04 109.55 82.38 101.64 90.26"/>
    <polygon class="cls-22" points="319.53 346.67 305.89 333.81 313.4 326.35 327.16 339.38 319.53 346.67"/>
    <polygon class="cls-22" points="394.6 170.83 386.54 162.73 399 150.3 407.08 158.43 394.6 170.83"/>
    <polygon class="cls-22" points="414 151.45 405.84 143.37 418.27 130.86 426.46 139.11 414 151.45"/>
    <polygon class="cls-22" points="339.65 225.89 331.85 218.04 344.7 205.16 352.33 213.07 339.65 225.89"/>
    <polygon class="cls-22" points="191.25 320.31 183.53 313.08 196.3 299.91 203.88 307.31 191.25 320.31"/>
    <polygon class="cls-22" points="433.27 132.13 425.05 123.88 437.2 111.79 445.39 120.04 433.27 132.13"/>
    <polygon class="cls-22" points="136.02 92.01 124.58 81.31 133.64 72.61 144.8 83.37 136.02 92.01"/>
    <polygon class="cls-22" points="118.08 394.92 110.17 387.04 122.26 374.83 130.37 382.6 118.08 394.92"/>
    <polygon class="cls-22" points="137.06 375.74 129.27 367.68 141.44 355.25 149.55 362.94 137.06 375.74"/>
    <polygon class="cls-22" points="338.26 398.67 328.15 389.04 337.81 379.66 347.76 389.49 338.26 398.67"/>
    <polygon class="cls-22" points="159.3 143.29 146.22 131.23 153.82 123.65 167.01 135.63 159.3 143.29"/>
    <polygon class="cls-22" points="154.58 109.22 143.22 98.77 151.98 90.01 163.19 100.57 154.58 109.22"/>
    <polygon class="cls-22" points="99.09 414.04 91.21 406.1 103.25 393.96 111.35 401.84 99.09 414.04"/>
    <polygon class="cls-22" points="198.37 178.97 185.06 166.79 192.41 159.34 205.63 171.68 198.37 178.97"/>
    <polygon class="cls-22" points="359.48 206.12 351.29 198.29 363.52 186.09 371.2 194.22 359.48 206.12"/>
    <polygon class="cls-22" points="374.79 399.72 362.67 388.25 370.55 380.51 382.7 391.98 374.79 399.72"/>
    <polygon class="cls-22" points="172.52 339.63 164.49 331.95 176.78 319.8 184.38 327.26 172.52 339.63"/>
    <polygon class="cls-22" points="438.36 445.4 430.5 453.34 418.58 441.64 426.57 433.93 438.36 445.4"/>
    <polygon class="cls-22" points="338.66 365.31 326.48 353.59 334.2 345.99 346.48 357.57 338.66 365.31"/>
    <polygon class="cls-22" points="395.44 204.73 386.06 194.96 395.44 185.41 405.25 195.1 395.44 204.73"/>
    <polygon class="cls-22" points="192.94 145.01 181.81 134.64 190.46 126.45 201.45 136.79 192.94 145.01"/>
    <polygon class="cls-22" points="140.4 340.59 130.73 331.13 140.28 321.64 149.72 330.99 140.4 340.59"/>
    <polygon class="cls-22" points="411.52 435 399.99 423.99 408.16 416.22 419.57 427.32 411.52 435"/>
    <polygon class="cls-22" points="120.45 107.66 108.84 96.9 116.69 89.05 128.28 99.9 120.45 107.66"/>
    <polygon class="cls-22" points="393.15 417.29 381.83 406.53 389.62 398.73 401.06 409.66 393.15 417.29"/>
    <path class="cls-44" d="M246.51,289.34c-.45,1.81-1.89,3.22-3.19,4.66-3.96,4.41-7.29,9.21-11.95,13.05l-18.81,15.48-11.27,11.84c-2.4,2.54-3.79,5.59-4.21,9.15-1.78-4.49.85-8.56,3.62-12.23,10.51-13.84,26.02-21.92,32.26-28.87l11.87-13.19c.28-.31.25-.85.4-1.13l1.24,1.27.06-.03Z"/>
    <polygon class="cls-22" points="138.96 124.76 127.49 114.05 135.34 106.48 146.7 117.07 138.96 124.76"/>
    <polygon class="cls-22" points="177.91 160.21 166.44 149.96 173.99 142.5 185.2 152.72 177.91 160.21"/>
    <path class="cls-74" d="M242.1,241.66l-1.24,1.89-7.83-5.73-11.16-8.87c-7.35-5.85-13.33-21.81-26.33-28.56-.42-.23-1.75-.59-1.72-1.13.37-4.15,9.8,2.23,13.9,7.68l12.01,16.02c6.05,6.67,13.08,12.15,20.74,16.81.93.57,1.7.45,1.64,1.89Z"/>
    <path class="cls-11" d="M304.96,293.02c-.14.9.54,1.41,1.13,2.15l12.54,14.94c4.77,5.68,9.94,10.37,15.88,14.8,1.89,1.41,4.44,2.15,5.4,4.92-9.21-3.79-16.33-10.31-22.69-17.68l-23.11-27.26,1.84-2.32c1.13,2.34,2.94,4.15,4.8,6.1,0,0,4.21,4.35,4.21,4.35Z"/>
    <path class="cls-17" d="M58.24,471.65l-1.67-1.64c10.65-14.41,28.22-33.42,44.18-41.67.4-.2.93.99.71,1.24l-1.07,1.24c-16.5,11.24-30.4,25.14-42.12,40.82h-.03Z"/>
    <path class="cls-33" d="M47.08,56.5l2.63-2.6c0,1.38,1.38,1.58,2.2,2.23l13.76,11.22c5.93,4.83,23.25,23.36,25.57,29.07.17.4-1.24.82-1.75.2l-11.61-13.42c-9.01-10.4-19.24-19.27-30.74-26.75l-.06.06Z"/>
    <polygon class="cls-22" points="156.16 356.16 148.33 348.42 157.83 338.84 165.48 346.5 156.16 356.16"/>
    <polygon class="cls-22" points="355.72 381.47 345.69 371.89 353.38 364.41 363.58 374.07 355.72 381.47"/>
    <polygon class="cls-22" points="378.44 187.16 370.36 179.34 379.85 169.7 387.76 177.75 378.44 187.16"/>
    <path class="cls-48" d="M478.16,54.02l-16.98,15.74-1.5-.79-12.06,11.64-15.96,15.28c-1.19,1.13-2.49,2.85-4.18,1.7l48.25-46.16,2.43,2.6h0Z"/>
    <path class="cls-77" d="M288.63,236.18c-.42-.37-.9-.57-1.19-.96l4.63-4.94,13.56-10.42c9.15-7.03,17.83-14.1,25.11-24.38.31,4.35-2.51,7.03-4.97,9.89-11.84,13.62-24.3,19.21-33.67,28.08-1.16,1.1-1.95,2.37-3.45,2.74h-.03Z"/>
    <path class="cls-13" d="M480.25,468.82c-.59.82-1.53,1.81-2.29,2.37-.11-.76-.9-1.7-1.67-2.2-6.98-4.52-12.77-9.75-18.5-15.82s-11.64-12.37-16.64-19.52l-.65-1.5c-.17-.4.76-1.19,1.05-.88l4.35,4.49c4.8,6.33,9.89,11.92,15.54,17.52,5.93,5.88,11.87,11.33,18.84,15.54h-.03Z"/>
    <path class="cls-72" d="M250.04,248.21c-2.49,1.7-3.33,4.1-5.34,5.45l-1.1,6.47-.4,15.03c.2.62,0,1.19-.65,1.19-5.62-11.75-2.97-27.32,6.72-34.52.31.08.68.25.71.79,0,0,.06,5.59.06,5.59Z"/>
    <path class="cls-23" d="M61.75,53.62l-2.29-2.34,14.49-14.04,10.82-10.4c.57-.54,2.4.96,2.37,1.81l-18.76,18.53s-6.64,6.44-6.64,6.44Z"/>
    <path class="cls-84" d="M289.16,289.74c6.98,7.4,13.9,14.72,19.63,22.71-1.95-.11-2.49-1.53-3.5-1.41l-19.69-18.76,3.56-2.54Z"/>
    <path class="cls-60" d="M427.14,173.15l-18.84-18.84-6.7-6.92,1.7-1.47,25.93,25.82c-.54.42-1.3.42-2.06,1.41h-.03Z"/>
    <path class="cls-76" d="M85.62,75.29c-.51-.25-1.02-.73-1.61-1.58l19.52-19.32,5.57-5.23c.54.54.9,1.02,1.3,1.95,0,0-24.78,24.18-24.78,24.18Z"/>
    <path class="cls-98" d="M107.03,93.65c-.96.96-2.66-.85-2.2-1.3l17.8-17.63,6.61-6.38,1.53,1.67-23.73,23.65Z"/>
    <path class="cls-39" d="M446.18,153.32l-13.53-13.33-11.5-11.75c.23-.59.51-1.24,1.38-1.67l24.89,24.75c.59.59.51,1.02.28,1.44-.2.4-1.02.99-1.5.54l-.03.03Z"/>
    <path class="cls-34" d="M268.06,234.76l-.4,4.72c-5.65,0-10.54,2.77-15.23,5.59l-.59-5.17c4.72-3.5,10.48-5.25,16.22-5.14Z"/>
    <path class="cls-32" d="M449.46,480.94l-4.89-4.52-12.01-11.44,2.6-2.46,16.7,16.16c.42.76-1.81,2.83-2.4,2.26Z"/>
    <path class="cls-99" d="M487.17,113.43l-25.88-25.79c.03-.73.82-1.5,1.5-1.55l25.88,25.54c.45.45-.37,1.61-1.5,1.81Z"/>
    <path class="cls-16" d="M343.07,402.12c-.76.73-1.7-.08-1.78-.65-.11-.71.45-1.07,1.02-1.64l12.97-12.71,10.14-9.77c.59-.57,1.72-.37,2.15,1.02l-24.49,23.76Z"/>
    <path class="cls-7" d="M417.31,474.64c-.85,0-1.5-.82-1.84-1.3l5.03-5.37,15.93-15.2,4.49-4.69c.71.76,1.16,1.1,1.92,1.47l-5.76,5.73-19.75,19.35h-.03Z"/>
    <path class="cls-26" d="M398.35,456.19c-.54.51-1.72-.79-1.55-1.07.17-.31.28-.88.73-1.3l13.59-13.28,10.76-10.48c.59-.11,1.64.93,1.55,1.61l-15.17,14.75-9.89,9.75-.03.03Z"/>
    <path class="cls-103" d="M326.23,385.79c-.59.59-1.16.28-1.38.17-.54-.28-.93-.82-.4-1.38l7.4-7.77,17.12-16.58c.59.23,1.21.79,1.58,1.61l-24.3,23.96h-.03Z"/>
    <path class="cls-102" d="M362.53,420.06c-.51.51-1.13.73-1.58.59-.34-.08-1.05-.93-.82-1.21l21.56-21.41c1.1-1.1,2.43-1.5,3.25-3.25l1.84,1.75-8.73,8.48-15.48,15.06h-.03Z"/>
    <path class="cls-46" d="M379.82,438.34c-.4.34-1.1-.37-1.24-.68-.2-.45,0-1.16.54-1.67l13.53-13.16,9.86-9.58c.54-.51.79-.59,1.33-.65s1.41,1.02.88,1.58l-20.71,20.51-4.21,3.64h.03Z"/>
    <path class="cls-51" d="M74.74,438.56l-25.37-25.28,1.19-1.95,25.79,25.62c-.28.65-.71,1.16-1.61,1.61Z"/>
    <path class="cls-27" d="M91.41,60.43l-15.96-14.89,2.57-2.68,15.79,15.14c.25.88-1.36,2.46-2.4,2.43Z"/>
    <path class="cls-62" d="M113.39,398.73l-24.61-24.83,1.05-1.95,25.14,25.14c.76.76-.76,2.46-1.61,1.61l.03.03Z"/>
    <path class="cls-35" d="M465.28,134.79l-25.26-25.31c0-.68.79-1.47,1.53-1.5l24.69,24.52c.37.37.59.88.48,1.1s-.25.73-1.47,1.19h.03Z"/>
    <path class="cls-55" d="M407.7,192.05l-25.17-25.09c.34-.62.73-1.07,1.44-1.7l25.4,25.43c-.06.71-1.02,1.61-1.67,1.38v-.03Z"/>
    <path class="cls-86" d="M143.81,128.06c-.51.48-1.78-.14-2.01-1.13l19.27-18.81,5.06-4.86,1.55,1.72-13.19,12.77-10.68,10.34v-.03Z"/>
    <path class="cls-104" d="M391.35,208.75l-25.06-25.03c.34-.76.9-1.38,1.53-1.72l25.03,25.2c-.28.57-.73,1.07-1.53,1.55h.03Z"/>
    <path class="cls-18" d="M371.77,227.19l-24.07-24.13c-.65-.82.88-2.29,1.38-1.78l23.76,23.98c.54.54.68.76.65,1.33-.03.42-.9,1.41-1.72.59h0Z"/>
    <path class="cls-14" d="M132.88,379.86l-25.11-25.03c.23-.57.57-1.07,1.38-1.78l24.95,24.92c-.14.45-.54,1.13-1.24,1.86l.03.03Z"/>
    <path class="cls-95" d="M167.94,343.73l-24.24-24.07c-.54-.54-.37-1.07-.2-1.41.14-.31,1.1-.85,1.53-.42l24.44,24.21c-.2.51-.48.99-1.53,1.7Z"/>
    <path class="cls-56" d="M198.31,148.26l-16.05,15.74c-.88-.2-1.72-1.36-1.36-1.72l23.25-23.05c.88.17,1.84,1.47,1.27,2.03l-7.12,7.03v-.03Z"/>
    <path class="cls-75" d="M187.21,321.86c.71.68.76,1.05.88,1.53s-1.02,1.33-1.58.76l-24.35-24.21c-.11-.62,1.24-1.72,1.7-1.27l23.36,23.17v.03Z"/>
    <path class="cls-18" d="M94.8,417.94l-25.34-25.14c.57-.76.9-.9,1.13-1.02.25-.11.79.11,1.13.45l24.66,24.32c-.37.59-.93,1.21-1.58,1.41v-.03Z"/>
    <path class="cls-40" d="M307.67,367.03c-.4.4-.85.88-1.16.88-.45,0-1.16-.54-1.5-1.36l24.52-24.52c.62.23,1.05.59,1.81,1.41l-23.65,23.59h-.03Z"/>
    <path class="cls-12" d="M151.84,360.17l-24.97-24.78c-.17-.28.59-1.13,1.24-1.44l24.66,24.01c.45.42.48,1.64-.93,2.2Z"/>
    <path class="cls-100" d="M125.17,111.25c-.59.14-1.38-.62-1.86-1.33l24.15-23.9c.93.45,1.36.85,1.84,1.3l-24.13,23.93Z"/>
    <path class="cls-88" d="M164.49,146.65c-.71.71-1.27.25-1.61-.08-.51-.48-.85-.71-.25-1.27l23.34-23c.68.23,1.27.85,1.58,1.53l-23.02,22.83h-.03Z"/>
    <path class="cls-8" d="M230.32,189.42l-14.89-13.65,2.68-2.68,14.69,13.81c-.79,1.19-1.53,1.75-2.49,2.51Z"/>
    <path class="cls-53" d="M203.25,182.36c-.48.48-1.84-.23-2.01-1.1l22.85-22.71c.62.23,1.33.85,1.55,1.55l-22.37,22.26h-.03Z"/>
    <path class="cls-76" d="M458.05,117.81c-.73.68-2.54-1.16-2.77-2.01l14.15-14.44,2.6,2.66-13.98,13.76v.03Z"/>
    <path class="cls-15" d="M47.76,444.92c-1.24-.23-2.06-1.38-2.51-2.23l13.98-14.55c1.05.76,2.2,1.86,2.15,2.88l-13.62,13.9h0Z"/>
    <path class="cls-54" d="M68.5,423.79c-1.1-.42-2.49-2.37-1.92-2.94l12.57-12.85c.9.68,1.7,1.41,2.43,2.63l-13.11,13.16h.03Z"/>
    <path class="cls-1" d="M208.17,168.55l-13.08-11.55c.71-1.1,1.36-1.75,2.68-2.74l12.91,12.06c-.08.9-1.89,2.57-2.54,2.23h.03Z"/>
    <path class="cls-83" d="M314.31,351.61l-13.5-12.77,2.4-2.6,13.31,13c-.76,1.07-1.33,1.67-2.2,2.37Z"/>
    <path class="cls-70" d="M344.51,231.09l-2.63-2.37c1.07-1.61,2.77-2.43,4.07-3.79l8.62-9.07c.9.54,1.61,1.33,2.54,2.49l-6.84,7.09-5.79,5.65h.03Z"/>
    <path class="cls-32" d="M181.27,310.02c-1.05-.4-1.84-1.38-2.66-2.54l12.68-12.8,2.43,2.54-12.46,12.8Z"/>
    <path class="cls-4" d="M114.43,77.3c-.65,1.1-1.21,1.55-2.09,2.29l-12.94-11.7c-.03-1.19,1.55-2.74,2.4-2.46,4.46,3.56,8.62,7.91,12.63,11.87Z"/>
    <path class="cls-91" d="M107.6,384.21c-.93-.59-1.72-1.3-2.54-2.49l11.92-11.92c1.02.06,2.2,1.13,2.63,2.12l-12.03,12.26.03.03Z"/>
    <path class="cls-4" d="M419.46,156.57c-1.36-.51-2.03-1.53-2.6-2.37l12.2-12.49,2.51,2.57-12.09,12.29h-.03Z"/>
    <path class="cls-27" d="M400.19,175.78c-1.33-.28-2.26-1.5-2.68-2.26l12.03-12.2c.76.11,2.34,1.5,2.29,2.6l-11.64,11.87Z"/>
    <path class="cls-67" d="M126.75,364.77c-.48.45-2.01-.79-2.57-2.03l12.06-12.46,2.63,2.49-12.12,12.01Z"/>
    <polygon class="cls-52" points="171.95 130.6 169.41 132.98 156.7 120.86 159.04 118.6 167.6 126.48 171.95 130.6"/>
    <path class="cls-15" d="M479.4,96.68c-1.38-.42-2.03-1.5-2.63-2.46l12.01-12.12,2.46,2.74-11.81,11.81-.03.03Z"/>
    <path class="cls-28" d="M425.05,457.94l-11.61-11.05c.65-1.1,1.38-1.67,2.34-2.51l12.03,11.41c-.51.93-1.61,2.2-2.77,2.18v-.03Z"/>
    <path class="cls-81" d="M88.61,403.36c-.76-.34-1.36-1.1-2.54-2.49l10.54-10.65c.71-.73,1.67-1.1,2.34-.62.45.34,1.7,1.36,1.07,2.01l-11.41,11.78v-.03Z"/>
    <path class="cls-41" d="M162.23,328.95c-1.27-.37-1.81-1.41-2.66-2.34l11.84-11.95c1.02.71,1.55,1.5,2.4,2.57l-11.55,11.72h-.03Z"/>
    <path class="cls-90" d="M333.29,370.17l-11.89-11.55c.14-.79,1.98-2.77,2.6-2.18l11.58,11.24-2.29,2.49h0Z"/>
    <path class="cls-76" d="M364.96,210.81c-.82.85-3.14-1.64-2.57-2.29l10.88-11.24c.96-.42,2.51,1.36,2.74,2.09l-11.05,11.47v-.03Z"/>
    <path class="cls-90" d="M369.34,404.69l-11.87-11.1c.65-1.05,1.33-1.72,2.49-2.54l11.95,11.33c-.59.93-1.1,1.61-2.6,2.29l.03.03Z"/>
    <path class="cls-71" d="M443.89,131.73l-5.28,5.42c-1.13-.65-1.86-1.44-2.4-2.32l11.95-12.12,2.2,2.4-6.5,6.58.03.03Z"/>
    <path class="cls-85" d="M408.75,437.15c-.62,1.47-1.53,2.01-2.49,2.71l-10.88-10.57c-.45-.68,1.75-2.85,2.34-2.29l10.99,10.17.03-.03Z"/>
    <path class="cls-87" d="M130.51,96.87l-10.68-10.2,2.29-2.57,10.93,10.23c.65.68-1.84,3.22-2.54,2.54Z"/>
    <path class="cls-64" d="M388.01,422.15l-11.3-10.62,2.46-2.43,11.05,10.74c-.57.9-.88,1.44-2.2,2.32h0Z"/>
    <polygon class="cls-95" points="149.46 114.22 138.16 103.85 140.4 101.56 151.81 111.87 149.46 114.22"/>
    <path class="cls-1" d="M187.63,149.9l-10.71-9.89,2.54-2.6,10.42,9.92c.48.45-.71,2.18-2.26,2.57Z"/>
    <path class="cls-38" d="M244.73,279.46l-2.18-3.14c.65,0,.85-.57.65-1.19l.4-15.03,1.1-6.47c2.23,7.23.85,17.37.03,25.82Z"/>
    <path class="cls-68" d="M352.81,383.87c-.28.99-1.21,1.78-2.4,2.66l-9.75-9.21c.17-.99,1.16-2.34,2.34-2.54l9.77,9.1h.03Z"/>
    <path class="cls-73" d="M383.92,192.13c-1.38-.45-1.84-1.27-2.8-2.2l9.01-9.38c.73.11,2.43,1.53,2.37,2.66,0,0-8.59,8.93-8.59,8.93Z"/>
    <path class="cls-45" d="M145.68,345.51c-.99-.31-1.84-1.21-2.37-2.29l8.93-9.35c.96.65,1.67,1.38,2.43,2.43,0,0-8.98,9.21-8.98,9.21Z"/>
    <path class="cls-50" d="M280.91,237.7v3.19c-3.42-.85-6.86-2.01-10.51-1.41l-.37-4.69c3.76.08,7.51,1.1,10.85,2.91h.03Z"/>
    <path class="cls-78" d="M294.53,252.39c-.54,5.17-.68,10.17-3.31,14.89l.31-20.51s2.99,5.62,2.99,5.62Z"/>
    <path class="cls-69" d="M479.4,55.18l-1.36.31-7.46,8.08-9.89,8.96c-.99-1.58.08-2.18.51-2.77l16.98-15.74,1.24,1.16h-.03Z"/>
    <path class="cls-80" d="M253.79,285.16c.14.85-.23,1.7-.59,2.46-3.02-1.75-5.88-3.96-7.71-6.98,1.92.51,3.47,1.38,5.28,2.68.48-3.67.25-6.75,1.5-10.34,1.47,4.04.93,8.11,1.55,12.15l-.03.03Z"/>
    <path class="cls-10" d="M252.44,245.1l-.68,13.79h-.96l-.76-10.68-.06-5.59c0-.54-.37-.71-.71-.79l2.57-1.89.59,5.17h0Z"/>
    <path class="cls-9" d="M270.07,234.79l.37,4.69-.82,11.87c-.37-.03-.76-.08-1.02-.28l-.93-11.58.4-4.72h2.01v.03Z"/>
    <path class="cls-37" d="M283.23,238.95c.54,4.58.37,9.35-.96,14.61-1.36-4.18-1.13-8.42-1.33-12.66v-3.19l2.29,1.24Z"/>
    <path class="cls-22" d="M276.56,321.35c-1.64,3.14-4.77,5.25-7.43,7.6-3.19-2.32-5.88-5.25-8.53-8.25,1.55-3.7,6.44-.73,12.01-2.01,1.44-.34,5.06.54,3.96,2.66Z"/>
    <path class="cls-22" d="M277.3,206.97c-.54,1.7-1.98,2.09-2.94,3.33-4.29-.14-8.16-.34-12.63.28-1.58.23-3.16-1.89-3.79-3.53l9.49-9.61,2.26,2.09c.65-.9,1.38-.2,1.36,0l-.25,1.3c1.47,2.12,4.04,4.58,6.53,6.1l-.03.03Z"/>
    <path class="cls-22" d="M211.22,272.17l-8.45-8.81,8.25-7.32c.57,1.53,2.12,1.84,2.54,2.43,2.09,2.88.9,6.27,1.1,9.72.08,1.53-1.89,2.8-3.45,3.96v.03Z"/>
    <path class="cls-22" d="M326.43,272.22l-3.28-2.94-.06-10.23c.79-1.7,1.98-2.77,3.47-3.25l7.99,7.97-3.33,3.79-4.8,4.63v.03Z"/>
    <path class="cls-2" d="M143.81,140.27l6.86,6.3c3.5,3.19,6.98,6.16,9.46,10.03.31.37.99.96.88,1.47-.14.54-.45.99-1.27,1.61l-12.12-12.03c-8.81-8.76-18.31-15.91-29.27-21.75-3.05-2.54-7.03-3.67-8.36-7.91l22.18,13.33c4.38,2.63,8.14,5.73,11.67,8.96h-.03Z"/>
    <path class="cls-5" d="M107.23,417.6c2.85-2.97,6.61-4.77,10.06-7.4,5.82-4.55,11.47-9.38,15.4-15.82,5-8.16,10.74-15.17,18.22-21.1,1.84-1.47,3.16-3.93,6.24-3.62-1.44,2.23-3.19,3.87-5.06,5.45-6.75,5.82-12.01,12.37-16.89,19.92-6.67,10.28-15.74,18.65-28,22.57h.03Z"/>
    <path class="cls-20" d="M269.61,251.35c4.86.51,8.81,4.01,10.06,8.42s-.06,9.58-3.33,12.8c-4.6,3.33-10.88,3.56-15.37.25-4.24-3.11-6.13-8.79-3.93-14.46,1.64-4.21,6.55-7.29,11.55-7.26.25.17.65.23,1.02.28v-.03ZM265.6,256.63c-4.04,1.53-5.59,5.99-3.9,9.49,1.58,3.28,5.4,5.03,8.87,3.64s5.71-5.45,4.12-9.01-5.17-5.59-9.1-4.12Z"/>
    <path class="cls-19" d="M237.55,228.04c-7.01-4.41-13.45-9.77-18.79-16.53-.28-.34-.48-.73-.51-.96,0-.25.31-.54.73-.68l10.09,9.29,6.86,6.36c.71.65,2.29,1.07,1.61,2.54v-.03Z"/>
    <path class="cls-59" d="M265.6,256.63c3.93-1.5,7.57.71,9.1,4.12,1.53,3.42-.57,7.6-4.12,9.01s-7.29-.37-8.87-3.64c-1.7-3.5-.14-7.94,3.9-9.49Z"/>
  </g>
</svg>